<svg width="11" height="7" viewBox="0 0 11 7" fill="none" xmlns="http://www.w3.org/2000/svg">
<path d="M5.85227 3.09091C5.85227 3.72538 5.73201 4.26515 5.49148 4.71023C5.25284 5.1553 4.92708 5.49527 4.5142 5.73011C4.10322 5.96307 3.6411 6.07955 3.12784 6.07955C2.6108 6.07955 2.14678 5.96212 1.7358 5.72727C1.32481 5.49242 1 5.15246 0.761364 4.70739C0.522727 4.26231 0.403409 3.72348 0.403409 3.09091C0.403409 2.45644 0.522727 1.91667 0.761364 1.47159C1 1.02652 1.32481 0.6875 1.7358 0.454545C2.14678 0.219697 2.6108 0.102273 3.12784 0.102273C3.6411 0.102273 4.10322 0.219697 4.5142 0.454545C4.92708 0.6875 5.25284 1.02652 5.49148 1.47159C5.73201 1.91667 5.85227 2.45644 5.85227 3.09091ZM4.60511 3.09091C4.60511 2.67992 4.54356 2.33333 4.42045 2.05114C4.29924 1.76894 4.12784 1.55492 3.90625 1.40909C3.68466 1.26326 3.42519 1.19034 3.12784 1.19034C2.83049 1.19034 2.57102 1.26326 2.34943 1.40909C2.12784 1.55492 1.95549 1.76894 1.83239 2.05114C1.71117 2.33333 1.65057 2.67992 1.65057 3.09091C1.65057 3.50189 1.71117 3.84848 1.83239 4.13068C1.95549 4.41288 2.12784 4.62689 2.34943 4.77273C2.57102 4.91856 2.83049 4.99148 3.12784 4.99148C3.42519 4.99148 3.68466 4.91856 3.90625 4.77273C4.12784 4.62689 4.29924 4.41288 4.42045 4.13068C4.54356 3.84848 4.60511 3.50189 4.60511 3.09091ZM7.95099 3.47727V6H6.74077V1.63636H7.89418V2.40625H7.94531C8.0419 2.15246 8.20384 1.9517 8.43111 1.80398C8.65838 1.65436 8.93395 1.57955 9.25781 1.57955C9.56084 1.57955 9.82505 1.64583 10.0504 1.77841C10.2758 1.91098 10.451 2.10038 10.576 2.34659C10.701 2.59091 10.7635 2.88258 10.7635 3.22159V6H9.55327V3.4375C9.55516 3.17045 9.48698 2.96212 9.34872 2.8125C9.21046 2.66098 9.02012 2.58523 8.7777 2.58523C8.61482 2.58523 8.47088 2.62027 8.34588 2.69034C8.22277 2.76042 8.12618 2.86269 8.05611 2.99716C7.98793 3.12973 7.95289 3.28977 7.95099 3.47727Z" fill="#F6B60D"/>
</svg>
